<svg width="89" height="118" viewBox="0 0 89 118" fill="none" xmlns="http://www.w3.org/2000/svg">
<g clip-path="url(#clip0_1865_12392)">
<path d="M22.7664 102.921H20.3606V89.1021H22.7664V102.921ZM21.8217 102.921V100.729H24.8323C25.4883 100.736 26.1407 100.634 26.7624 100.429C27.3418 100.247 27.8726 99.9405 28.3159 99.5312C28.7592 99.1218 29.1038 98.6202 29.3245 98.063C29.8136 96.7377 29.8136 95.2854 29.3245 93.9601C29.0967 93.3978 28.7464 92.8915 28.2983 92.4766C27.8533 92.0852 27.3302 91.7894 26.7624 91.6079C26.1395 91.4077 25.4876 91.3084 24.8323 91.3139H21.8217V89.1221H24.8935C26.2056 89.0954 27.5039 89.3893 28.6721 89.9774C29.7323 90.5293 30.6114 91.3658 31.207 92.3898C31.8093 93.5123 32.1241 94.7624 32.1241 96.0316C32.1241 97.3008 31.8093 98.5509 31.207 99.6735C30.611 100.695 29.7318 101.53 28.6721 102.079C27.5056 102.672 26.2065 102.969 24.8935 102.941L21.8217 102.921Z" fill="white"/>
<path d="M35.2777 89.1021H32.8923V102.921H35.2777V89.1021Z" fill="white"/>
<path d="M38.9884 89.1021V100.83H44.6766V102.921H36.7253V89.1021H38.9884Z" fill="white"/>
<path d="M43.8952 93.1449C44.2444 92.2965 44.7672 91.5278 45.4311 90.8863C46.0985 90.244 46.8884 89.7376 47.7553 89.3961C49.6196 88.6834 51.6879 88.6834 53.5523 89.3961C54.4154 89.7409 55.2024 90.247 55.8697 90.8863C56.5315 91.5295 57.0539 92.2978 57.4056 93.1449C57.7729 94.0569 57.9552 95.0307 57.9425 96.0116C57.9521 96.99 57.7698 97.9611 57.4056 98.8716C57.0603 99.7303 56.54 100.51 55.8765 101.164C55.2136 101.813 54.4258 102.327 53.559 102.674C51.6846 103.395 49.6025 103.395 47.7281 102.674C46.8586 102.332 46.0698 101.818 45.4105 101.164C44.7512 100.51 44.2355 99.7295 43.8952 98.8716C43.5286 97.9615 43.344 96.9904 43.3515 96.0116C43.3409 95.0303 43.5256 94.0564 43.8952 93.1449ZM46.4709 98.5442C46.8613 99.2713 47.4495 99.8774 48.1698 100.295C48.9271 100.707 49.7782 100.923 50.6436 100.923C51.5089 100.923 52.3601 100.707 53.1173 100.295C53.8322 99.8749 54.4154 99.2691 54.8027 98.5442C55.2203 97.7641 55.4307 96.893 55.4144 96.0116C55.4311 95.1296 55.2257 94.2573 54.8163 93.4723C54.4313 92.7497 53.8503 92.146 53.1377 91.7282C52.3782 91.3122 51.5232 91.0938 50.6538 91.0938C49.7844 91.0938 48.9294 91.3122 48.1698 91.7282C47.4513 92.145 46.8634 92.7485 46.4709 93.4723C46.0686 94.2592 45.8591 95.1276 45.8591 96.0082C45.8591 96.8889 46.0686 97.7574 46.4709 98.5442Z" fill="white"/>
<path d="M71.2148 89.1021V103.609L60.9529 93.6394V102.921H58.6287V88.4138L68.8838 98.3772V89.1021H71.2148Z" fill="white"/>
<path d="M79.4311 95.6907H86.2271C86.2567 96.6642 86.1188 97.6357 85.8193 98.5641C85.5312 99.4439 85.0693 100.259 84.4601 100.963C83.866 101.671 83.1152 102.235 82.265 102.614C81.3276 103.027 80.3089 103.233 79.2816 103.215C78.2805 103.225 77.2867 103.048 76.3525 102.694C75.476 102.361 74.6792 101.853 74.0125 101.202C73.3457 100.551 72.8235 99.7711 72.4788 98.9116C72.1099 97.9882 71.9253 97.0035 71.9351 96.0115C71.9228 95.0207 72.1098 94.0374 72.4856 93.118C72.841 92.2657 73.3681 91.4928 74.0351 90.846C74.7072 90.2016 75.5079 89.701 76.3865 89.3759C78.1344 88.7473 80.0429 88.6957 81.8233 89.2289C82.5604 89.4579 83.2506 89.813 83.8621 90.278C84.4611 90.7347 84.974 91.291 85.3776 91.9219L83.4543 93.1848C83.0649 92.529 82.5071 91.9852 81.8369 91.6078C80.7043 90.9704 79.3616 90.7982 78.1006 91.1285C76.8396 91.4588 75.7621 92.265 75.1021 93.372C74.6392 94.1761 74.4045 95.0877 74.4225 96.0115C74.4109 96.9324 74.6453 97.8402 75.1021 98.6443C75.5222 99.3853 76.1395 100 76.8877 100.423C77.6359 100.845 78.4869 101.06 79.3496 101.043C79.9218 101.051 80.4915 100.966 81.0349 100.789C81.5086 100.631 81.9453 100.381 82.3194 100.054C82.6804 99.7459 82.986 99.38 83.2233 98.9717C83.4655 98.5645 83.6485 98.1259 83.7669 97.6687H79.4311V95.6907Z" fill="white"/>
<path d="M22.114 114.876C22.3729 115.178 22.6891 115.428 23.0451 115.611C23.4006 115.788 23.7949 115.878 24.1936 115.871C24.6426 115.888 25.0823 115.743 25.4305 115.464C25.5841 115.335 25.7065 115.174 25.7888 114.992C25.8711 114.811 25.9112 114.613 25.9062 114.415C25.9239 114.065 25.8183 113.721 25.6072 113.439C25.3774 113.173 25.0924 112.959 24.7713 112.811C24.3709 112.62 23.9603 112.45 23.5412 112.303C23.2258 112.194 22.9172 112.067 22.6169 111.922C22.2705 111.754 21.9445 111.548 21.6451 111.307C21.3333 111.059 21.0746 110.752 20.884 110.405C20.6592 109.958 20.5555 109.46 20.5828 108.962C20.6102 108.463 20.7678 107.98 21.0403 107.559C21.354 107.108 21.7862 106.75 22.2907 106.523C22.8506 106.269 23.4617 106.143 24.0781 106.155C24.6698 106.142 25.2572 106.258 25.7975 106.496C26.2602 106.712 26.6775 107.011 27.0275 107.378C27.347 107.706 27.613 108.08 27.8159 108.487L26.2936 109.329C26.1484 109.058 25.9705 108.804 25.7635 108.574C25.5561 108.34 25.3045 108.147 25.0227 108.006C24.718 107.861 24.3824 107.79 24.0441 107.799C23.632 107.764 23.2222 107.889 22.9024 108.147C22.7873 108.252 22.6954 108.379 22.6323 108.52C22.5691 108.662 22.5362 108.814 22.5354 108.969C22.5337 109.245 22.6272 109.513 22.8004 109.73C23.0262 109.994 23.3035 110.21 23.6159 110.365C24.083 110.606 24.5667 110.813 25.0635 110.987C25.4081 111.107 25.7422 111.254 26.0625 111.428C26.3983 111.604 26.7053 111.83 26.9732 112.096C27.2578 112.36 27.4885 112.675 27.6527 113.025C27.8298 113.42 27.9157 113.849 27.9042 114.281C27.9115 114.757 27.8069 115.228 27.5984 115.658C27.4026 116.055 27.1194 116.404 26.7693 116.68C26.4169 116.968 26.0169 117.194 25.5868 117.348C25.1493 117.496 24.6902 117.573 24.2276 117.575C23.5985 117.584 22.9757 117.451 22.4063 117.188C21.8577 116.941 21.3619 116.594 20.9451 116.165C20.5436 115.757 20.211 115.287 19.9597 114.776L21.3597 113.82C21.5881 114.21 21.852 114.579 22.148 114.923" fill="white"/>
<path d="M31.1254 117.295H29.2837V106.342H31.1254V117.295ZM30.4458 106.342H36.0661V107.973H30.4458V106.342ZM30.4458 110.626H35.7467V112.223H30.4458V110.626ZM30.4458 115.664H36.0661V117.295H30.4458V115.664Z" fill="white"/>
<path d="M47.5446 106.342V117.843L39.4166 109.944V117.295H37.5681V105.794L45.7029 113.693V106.342H47.5446Z" fill="white"/>
<path d="M50.8881 114.876C51.1485 115.176 51.4644 115.426 51.8191 115.611C52.1747 115.788 52.5689 115.878 52.9677 115.871C53.4188 115.889 53.861 115.744 54.2113 115.464C54.3649 115.335 54.4874 115.173 54.5697 114.992C54.652 114.81 54.692 114.613 54.687 114.415C54.7057 114.064 54.5973 113.718 54.3812 113.439C54.1544 113.17 53.8686 112.955 53.5453 112.811C53.1455 112.618 52.7348 112.449 52.3152 112.303C51.9999 112.194 51.6912 112.067 51.391 111.922C51.0455 111.752 50.7196 111.546 50.4192 111.307C50.1092 111.057 49.8508 110.751 49.658 110.405C49.4421 109.993 49.339 109.532 49.359 109.069C49.3459 108.522 49.5076 107.984 49.8211 107.532C50.1322 107.082 50.5622 106.724 51.0648 106.496C51.6267 106.241 52.2403 106.116 52.8589 106.129C53.4485 106.115 54.0337 106.231 54.5715 106.469C55.0366 106.684 55.4563 106.983 55.8084 107.351C56.1257 107.681 56.3914 108.054 56.5967 108.461L55.0676 109.303C54.9273 109.03 54.7514 108.776 54.5443 108.547C54.3341 108.316 54.0831 108.124 53.8036 107.979C53.4986 107.835 53.1632 107.764 52.8249 107.772C52.4106 107.736 51.9983 107.861 51.6764 108.12C51.5623 108.225 51.4714 108.353 51.4094 108.494C51.3475 108.635 51.3157 108.788 51.3162 108.942C51.3121 109.217 51.4032 109.486 51.5745 109.704C51.8029 109.967 52.0824 110.183 52.3968 110.338C52.8631 110.577 53.347 110.78 53.8443 110.946C54.1867 111.067 54.5185 111.214 54.8365 111.387C55.1734 111.566 55.4824 111.791 55.754 112.056C56.0365 112.322 56.2668 112.637 56.4336 112.985C56.605 113.381 56.6884 113.81 56.6783 114.241C56.675 114.736 56.5539 115.223 56.3249 115.664C56.1268 116.06 55.844 116.409 55.4958 116.687C55.14 116.973 54.738 117.199 54.3065 117.355C53.2602 117.706 52.1169 117.648 51.1124 117.194C50.5662 116.947 50.0727 116.6 49.658 116.172C49.2565 115.763 48.9238 115.294 48.6726 114.782L50.0726 113.827C50.2988 114.216 50.5603 114.585 50.8541 114.929" fill="white"/>
<path d="M57.6841 109.55C57.9606 108.876 58.3773 108.266 58.9074 107.759C59.4348 107.248 60.0611 106.846 60.7491 106.576C62.225 106.015 63.8605 106.015 65.3364 106.576C66.0227 106.849 66.6483 107.251 67.1781 107.759C67.704 108.268 68.118 108.877 68.3946 109.55C68.6861 110.27 68.8316 111.04 68.8227 111.815C68.8297 112.593 68.6843 113.364 68.3946 114.087C68.1219 114.767 67.7105 115.384 67.1857 115.902C66.6609 116.419 66.0338 116.825 65.3432 117.094C64.61 117.389 63.8245 117.536 63.0326 117.529C62.2408 117.534 61.4557 117.387 60.7219 117.094C60.033 116.824 59.4083 116.417 58.887 115.898C58.3657 115.381 57.9564 114.765 57.6841 114.087C57.3944 113.364 57.249 112.593 57.256 111.815C57.2472 111.04 57.3926 110.27 57.6841 109.55ZM59.7229 113.827C60.0384 114.402 60.5086 114.88 61.0821 115.21C61.6815 115.539 62.3564 115.711 63.0428 115.711C63.7291 115.711 64.4041 115.539 65.0034 115.21C65.5758 114.879 66.0457 114.4 66.3626 113.827C66.6765 113.203 66.8398 112.517 66.8398 111.822C66.8398 111.126 66.6765 110.44 66.3626 109.817C66.0529 109.236 65.5814 108.754 65.0034 108.427C64.4008 108.101 63.724 107.93 63.036 107.93C62.348 107.93 61.6712 108.101 61.0685 108.427C60.4932 108.758 60.0227 109.239 59.7093 109.817C59.3929 110.44 59.2282 111.126 59.2282 111.822C59.2282 112.518 59.3929 113.204 59.7093 113.827" fill="white"/>
<path d="M72.0099 117.295H70.1274V106.342H72.0099V117.295ZM71.276 106.342H73.6002C74.3257 106.326 75.0457 106.469 75.7069 106.763C76.277 107.018 76.7605 107.429 77.1001 107.946C77.4204 108.492 77.589 109.11 77.589 109.74C77.589 110.37 77.4204 110.989 77.1001 111.535C76.763 112.056 76.2789 112.469 75.7069 112.724C75.0457 113.018 74.3257 113.162 73.6002 113.145H71.276V111.655H73.5186C73.9036 111.662 74.2858 111.59 74.64 111.441C74.9494 111.307 75.2118 111.086 75.3943 110.806C75.5733 110.501 75.6675 110.156 75.6675 109.804C75.6675 109.452 75.5733 109.106 75.3943 108.801C75.211 108.525 74.9485 108.309 74.64 108.18C74.2872 108.026 73.9044 107.951 73.5186 107.96H71.276V106.342ZM74.4905 112.069L78.2622 117.295H75.9652L72.4177 112.069H74.4905Z" fill="white"/>
<path d="M80.3215 114.876C80.5819 115.176 80.8978 115.426 81.2526 115.611C81.6081 115.788 82.0024 115.878 82.4011 115.871C82.8523 115.889 83.2944 115.744 83.6447 115.464C83.7984 115.335 83.9208 115.173 84.0031 114.992C84.0854 114.811 84.1255 114.613 84.1205 114.415C84.1391 114.064 84.0308 113.718 83.8146 113.439C83.5878 113.17 83.302 112.955 82.9787 112.811C82.579 112.619 82.1683 112.449 81.7487 112.303C81.4333 112.194 81.1247 112.067 80.8244 111.922C80.4789 111.752 80.1531 111.546 79.8526 111.307C79.5426 111.057 79.2842 110.751 79.0914 110.405C78.8705 109.956 78.7689 109.46 78.7962 108.962C78.8236 108.464 78.9789 107.981 79.2477 107.559C79.5633 107.11 79.995 106.752 80.4982 106.523C81.0602 106.268 81.6737 106.142 82.2923 106.155C82.8819 106.142 83.4669 106.259 84.0049 106.496C84.4701 106.711 84.8897 107.01 85.2418 107.378C85.5569 107.709 85.8224 108.083 86.0301 108.487L84.501 109.329C84.3608 109.056 84.1848 108.803 83.9777 108.574C83.7675 108.343 83.5166 108.15 83.237 108.006C82.9318 107.863 82.5966 107.792 82.2584 107.799C81.844 107.763 81.4317 107.888 81.1098 108.147C80.9957 108.252 80.9048 108.379 80.8429 108.521C80.7809 108.662 80.7492 108.815 80.7497 108.969C80.7455 109.244 80.8366 109.512 81.0079 109.73C81.2363 109.994 81.5159 110.209 81.8302 110.365C82.2965 110.603 82.7804 110.807 83.2778 110.973C83.6201 111.093 83.952 111.241 84.27 111.414C84.6068 111.593 84.9158 111.818 85.1874 112.082C85.4678 112.35 85.6978 112.665 85.867 113.011C86.0384 113.408 86.1219 113.837 86.1117 114.268C86.119 114.743 86.0144 115.215 85.8059 115.644C85.6126 116.041 85.3317 116.39 84.9835 116.667C84.6278 116.953 84.2258 117.179 83.7943 117.335C82.748 117.686 81.6047 117.628 80.6002 117.174C80.054 116.927 79.5605 116.58 79.1458 116.152C78.7425 115.745 78.4097 115.275 78.1604 114.762L79.5604 113.807C79.7842 114.198 80.0459 114.567 80.3419 114.909" fill="white"/>
<path d="M83.6787 19.0247C80.1966 13.0672 75.0693 8.20174 68.8906 4.99179C62.5749 1.65509 55.2488 -0.0110378 46.9125 -0.00658289H20.4897V33.3181L34.5166 19.1115V12.7566H46.5591C50.3727 12.7223 54.166 13.307 57.786 14.4874C61.1039 15.5739 64.1514 17.3362 66.7295 19.6595C69.3361 22.0675 71.371 25.0106 72.6896 28.2797C75.5712 35.9976 75.5712 44.471 72.6896 52.189C71.3727 55.4608 69.3376 58.4065 66.7295 60.8158C64.1514 63.1391 61.1039 64.9014 57.786 65.9879C54.1656 67.166 50.3724 67.7485 46.5591 67.712H34.5166V42.3192L20.4897 56.352V80.4084H46.9125C55.2488 80.4084 62.5749 78.74 68.8906 75.4033C75.0708 72.1955 80.1987 67.3295 83.6787 61.3705C87.2262 55.3564 88.9999 48.2865 88.9999 40.1608C88.9999 32.0351 87.2262 24.9652 83.6787 18.9511" fill="white"/>
<path d="M45.6893 40.1072L40.3205 45.5132V53.1377L47.7145 45.6936L60.0628 56.3853V49.262L49.3115 39.9736C48.8078 39.5301 48.1486 39.2962 47.473 39.3211C46.7973 39.346 46.1578 39.6279 45.6893 40.1072ZM45.6893 23.4549L14.5706 54.8016L0 40.8022V48.2529L12.7696 60.5217C13.2591 61.0002 13.9211 61.2693 14.6113 61.2701C14.9637 61.2688 15.3124 61.1983 15.6368 61.063C15.9612 60.9276 16.2548 60.7299 16.5006 60.4816L47.7145 29.0413L60.0628 39.733V32.6163L49.3115 23.3146C48.8062 22.8735 48.1469 22.6418 47.4717 22.668C46.7965 22.6941 46.1578 22.9761 45.6893 23.4549ZM14.5706 38.8242L0 24.8248V32.2755L12.7696 44.5509C13.0167 44.7906 13.3097 44.9796 13.6317 45.1071C13.9536 45.2345 14.298 45.2979 14.6451 45.2936C14.9921 45.2892 15.3348 45.2172 15.6533 45.0817C15.9718 44.9462 16.2598 44.7499 16.5006 44.5042L34.5167 26.3684V18.7104L14.5706 38.8242Z" fill="url(#paint0_linear_1865_12392)"/>
</g>
<defs>
<linearGradient id="paint0_linear_1865_12392" x1="0" y1="40.4304" x2="60.0628" y2="40.4304" gradientUnits="userSpaceOnUse">
<stop stop-color="#FFA130"/>
<stop offset="0.11" stop-color="#FF8F28"/>
<stop offset="0.33" stop-color="#FF6113"/>
<stop offset="0.5" stop-color="#FF3800"/>
<stop offset="0.62" stop-color="#FF4A08"/>
<stop offset="0.86" stop-color="#FF7A1E"/>
<stop offset="1" stop-color="#FF972B"/>
</linearGradient>
<clipPath id="clip0_1865_12392">
<rect width="89" height="117.843" fill="white"/>
</clipPath>
</defs>
</svg>
