<svg width="89" height="121" viewBox="0 0 89 121" fill="none" xmlns="http://www.w3.org/2000/svg">
<g clip-path="url(#clip0_1865_12442)">
<path d="M22.7664 105.679H20.3606V91.4893H22.7664V105.679ZM21.8217 105.679V103.428H24.8323C25.4883 103.435 26.1407 103.33 26.7624 103.119C27.3418 102.933 27.8726 102.618 28.3159 102.198C28.7592 101.778 29.1038 101.263 29.3245 100.69C29.8136 99.3295 29.8136 97.8384 29.3245 96.4775C29.0967 95.9002 28.7464 95.3803 28.2983 94.9543C27.8533 94.5524 27.3302 94.2486 26.7624 94.0623C26.1395 93.8568 25.4876 93.7548 24.8323 93.7604H21.8217V91.5099H24.8935C26.2056 91.4825 27.5039 91.7843 28.6721 92.3882C29.7323 92.9548 30.6114 93.8138 31.207 94.8651C31.8093 96.0178 32.1241 97.3013 32.1241 98.6045C32.1241 99.9078 31.8093 101.191 31.207 102.344C30.611 103.393 29.7318 104.25 28.6721 104.814C27.5056 105.423 26.2065 105.728 24.8935 105.699L21.8217 105.679Z" fill="#0B0C0B"/>
<path d="M35.2777 91.4893H32.8923V105.679H35.2777V91.4893Z" fill="#0B0C0B"/>
<path d="M38.9884 91.4893V103.531H44.6766V105.679H36.7253V91.4893H38.9884Z" fill="#0B0C0B"/>
<path d="M43.8952 95.6404C44.2444 94.7693 44.7672 93.98 45.4311 93.3213C46.0985 92.6618 46.8884 92.1418 47.7553 91.7912C49.6196 91.0594 51.6879 91.0594 53.5523 91.7912C54.4154 92.1453 55.2024 92.6649 55.8697 93.3213C56.5315 93.9817 57.0539 94.7706 57.4056 95.6404C57.7729 96.5769 57.9552 97.5768 57.9425 98.5839C57.9521 99.5886 57.7698 100.586 57.4056 101.521C57.0603 102.402 56.54 103.203 55.8765 103.874C55.2136 104.541 54.4258 105.068 53.559 105.425C51.6846 106.165 49.6025 106.165 47.7281 105.425C46.8586 105.073 46.0698 104.546 45.4105 103.874C44.7512 103.203 44.2355 102.401 43.8952 101.521C43.5286 100.586 43.344 99.589 43.3515 98.5839C43.3409 97.5763 43.5256 96.5764 43.8952 95.6404ZM46.4709 101.184C46.8613 101.931 47.4495 102.553 48.1698 102.982C48.9271 103.405 49.7782 103.627 50.6436 103.627C51.5089 103.627 52.3601 103.405 53.1173 102.982C53.8322 102.551 54.4154 101.929 54.8027 101.184C55.2203 100.383 55.4307 99.4889 55.4144 98.5839C55.4311 97.6783 55.2257 96.7826 54.8163 95.9766C54.4313 95.2346 53.8503 94.6148 53.1377 94.1858C52.3782 93.7586 51.5232 93.5344 50.6538 93.5344C49.7844 93.5344 48.9294 93.7586 48.1698 94.1858C47.4513 94.6138 46.8634 95.2334 46.4709 95.9766C46.0686 96.7845 45.8591 97.6762 45.8591 98.5805C45.8591 99.4847 46.0686 100.376 46.4709 101.184Z" fill="#0B0C0B"/>
<path d="M71.2148 91.4893V106.385L60.9529 96.1482V105.679H58.6287V90.7826L68.8838 101.013V91.4893H71.2148Z" fill="#0B0C0B"/>
<path d="M79.4311 98.2546H86.2271C86.2567 99.2542 86.1188 100.252 85.8193 101.205C85.5312 102.108 85.0693 102.945 84.4601 103.668C83.866 104.395 83.1152 104.974 82.265 105.363C81.3276 105.788 80.3089 105.999 79.2816 105.98C78.2805 105.99 77.2867 105.809 76.3525 105.445C75.476 105.103 74.6792 104.582 74.0125 103.913C73.3457 103.245 72.8235 102.444 72.4788 101.562C72.1099 100.614 71.9253 99.6026 71.9351 98.5839C71.9228 97.5666 72.1098 96.5569 72.4856 95.613C72.841 94.7378 73.3681 93.9442 74.0351 93.2801C74.7072 92.6184 75.5079 92.1044 76.3865 91.7706C78.1344 91.1251 80.0429 91.0721 81.8233 91.6197C82.5604 91.8547 83.2506 92.2194 83.8621 92.6969C84.4611 93.1658 84.974 93.737 85.3776 94.3848L83.4543 95.6816C83.0649 95.0081 82.5071 94.4498 81.8369 94.0623C80.7043 93.4078 79.3616 93.231 78.1006 93.5701C76.8396 93.9093 75.7621 94.7371 75.1021 95.8737C74.6392 96.6994 74.4045 97.6354 74.4225 98.5839C74.4109 99.5296 74.6453 100.462 75.1021 101.287C75.5222 102.048 76.1395 102.679 76.8877 103.113C77.6359 103.547 78.4869 103.767 79.3496 103.751C79.9218 103.759 80.4915 103.671 81.0349 103.49C81.5086 103.327 81.9453 103.07 82.3194 102.735C82.6804 102.418 82.986 102.043 83.2233 101.624C83.4655 101.205 83.6485 100.755 83.7669 100.286H79.4311V98.2546Z" fill="#0B0C0B"/>
<path d="M22.114 117.954C22.3729 118.264 22.6891 118.52 23.0451 118.708C23.4006 118.891 23.7949 118.983 24.1936 118.976C24.6426 118.993 25.0823 118.844 25.4305 118.557C25.5841 118.425 25.7065 118.259 25.7888 118.073C25.8711 117.887 25.9112 117.684 25.9062 117.48C25.9239 117.121 25.8183 116.767 25.6072 116.478C25.3774 116.206 25.0924 115.986 24.7713 115.833C24.3709 115.637 23.9603 115.463 23.5412 115.312C23.2258 115.2 22.9172 115.069 22.6169 114.921C22.2705 114.748 21.9445 114.536 21.6451 114.29C21.3333 114.035 21.0746 113.72 20.884 113.363C20.6592 112.904 20.5555 112.393 20.5828 111.881C20.6102 111.369 20.7678 110.873 21.0403 110.44C21.354 109.978 21.7862 109.611 22.2907 109.377C22.8506 109.116 23.4617 108.987 24.0781 108.999C24.6698 108.986 25.2572 109.105 25.7975 109.349C26.2602 109.571 26.6775 109.878 27.0275 110.255C27.347 110.591 27.613 110.976 27.8159 111.394L26.2936 112.259C26.1484 111.98 25.9705 111.719 25.7635 111.483C25.5561 111.243 25.3045 111.045 25.0227 110.9C24.718 110.751 24.3824 110.678 24.0441 110.687C23.632 110.651 23.2222 110.779 22.9024 111.044C22.7873 111.152 22.6954 111.283 22.6323 111.428C22.5691 111.573 22.5362 111.73 22.5354 111.888C22.5337 112.172 22.6272 112.447 22.8004 112.67C23.0262 112.941 23.3035 113.162 23.6159 113.322C24.083 113.569 24.5667 113.782 25.0635 113.96C25.4081 114.084 25.7422 114.235 26.0625 114.413C26.3983 114.595 26.7053 114.826 26.9732 115.099C27.2578 115.371 27.4885 115.694 27.6527 116.053C27.8298 116.459 27.9157 116.899 27.9042 117.343C27.9115 117.832 27.8069 118.315 27.5984 118.756C27.4026 119.164 27.1194 119.523 26.7693 119.806C26.4169 120.101 26.0169 120.334 25.5868 120.492C25.1493 120.644 24.6902 120.723 24.2276 120.726C23.5985 120.734 22.9757 120.598 22.4063 120.328C21.8577 120.074 21.3619 119.718 20.9451 119.278C20.5436 118.858 20.211 118.376 19.9597 117.851L21.3597 116.869C21.5881 117.27 21.852 117.649 22.148 118.002" fill="#0B0C0B"/>
<path d="M31.1254 120.437H29.2837V109.192H31.1254V120.437ZM30.4458 109.192H36.0661V110.866H30.4458V109.192ZM30.4458 113.59H35.7467V115.23H30.4458V113.59ZM30.4458 118.763H36.0661V120.437H30.4458V118.763Z" fill="#0B0C0B"/>
<path d="M47.5446 109.192V121L39.4166 112.89V120.437H37.5681V108.629L45.7029 116.739V109.192H47.5446Z" fill="#0B0C0B"/>
<path d="M50.8881 117.954C51.1485 118.262 51.4644 118.518 51.8191 118.708C52.1747 118.891 52.5689 118.983 52.9677 118.976C53.4188 118.994 53.861 118.845 54.2113 118.557C54.3649 118.425 54.4874 118.259 54.5697 118.073C54.652 117.887 54.692 117.684 54.687 117.48C54.7057 117.12 54.5973 116.765 54.3812 116.478C54.1544 116.202 53.8686 115.982 53.5453 115.833C53.1455 115.636 52.7348 115.462 52.3152 115.312C51.9999 115.2 51.6912 115.069 51.391 114.921C51.0455 114.746 50.7196 114.535 50.4192 114.29C50.1092 114.033 49.8508 113.718 49.658 113.363C49.4421 112.94 49.339 112.467 49.359 111.991C49.3459 111.429 49.5076 110.877 49.8211 110.413C50.1322 109.951 50.5622 109.583 51.0648 109.349C51.6267 109.088 52.2403 108.959 52.8589 108.972C53.4485 108.958 54.0337 109.078 54.5715 109.322C55.0366 109.542 55.4563 109.85 55.8084 110.228C56.1257 110.566 56.3914 110.95 56.5967 111.367L55.0676 112.231C54.9273 111.951 54.7514 111.69 54.5443 111.456C54.3341 111.218 54.0831 111.021 53.8036 110.873C53.4986 110.725 53.1632 110.652 52.8249 110.66C52.4106 110.623 51.9983 110.751 51.6764 111.017C51.5623 111.125 51.4714 111.256 51.4094 111.401C51.3475 111.546 51.3157 111.703 51.3162 111.861C51.3121 112.143 51.4032 112.419 51.5745 112.643C51.8029 112.913 52.0824 113.135 52.3968 113.295C52.8631 113.539 53.347 113.748 53.8443 113.919C54.1867 114.043 54.5185 114.194 54.8365 114.372C55.1734 114.555 55.4824 114.786 55.754 115.058C56.0365 115.331 56.2668 115.655 56.4336 116.012C56.605 116.419 56.6884 116.859 56.6783 117.302C56.675 117.81 56.5539 118.311 56.3249 118.763C56.1268 119.169 55.844 119.528 55.4958 119.813C55.14 120.107 54.738 120.339 54.3065 120.499C53.2602 120.859 52.1169 120.8 51.1124 120.334C50.5662 120.08 50.0727 119.724 49.658 119.285C49.2565 118.865 48.9238 118.383 48.6726 117.857L50.0726 116.876C50.2988 117.277 50.5603 117.656 50.8541 118.008" fill="#0B0C0B"/>
<path d="M57.6841 112.485C57.9606 111.793 58.3773 111.166 58.9074 110.646C59.4348 110.121 60.0611 109.708 60.7491 109.432C62.225 108.856 63.8605 108.856 65.3364 109.432C66.0227 109.712 66.6483 110.124 67.1781 110.646C67.704 111.169 68.118 111.795 68.3946 112.485C68.6861 113.225 68.8316 114.015 68.8227 114.811C68.8297 115.609 68.6843 116.401 68.3946 117.144C68.1219 117.842 67.7105 118.476 67.1857 119.007C66.6609 119.538 66.0338 119.955 65.3432 120.232C64.61 120.534 63.8245 120.685 63.0326 120.678C62.2408 120.684 61.4557 120.532 60.7219 120.232C60.033 119.954 59.4083 119.536 58.887 119.003C58.3657 118.472 57.9564 117.839 57.6841 117.144C57.3944 116.401 57.249 115.609 57.256 114.811C57.2472 114.015 57.3926 113.225 57.6841 112.485ZM59.7229 116.876C60.0384 117.467 60.5086 117.958 61.0821 118.297C61.6815 118.634 62.3564 118.812 63.0428 118.812C63.7291 118.812 64.4041 118.634 65.0034 118.297C65.5758 117.957 66.0457 117.466 66.3626 116.876C66.6765 116.236 66.8398 115.532 66.8398 114.818C66.8398 114.104 66.6765 113.399 66.3626 112.76C66.0529 112.163 65.5814 111.668 65.0034 111.332C64.4008 110.997 63.724 110.821 63.036 110.821C62.348 110.821 61.6712 110.997 61.0685 111.332C60.4932 111.672 60.0227 112.166 59.7093 112.76C59.3929 113.399 59.2282 114.103 59.2282 114.818C59.2282 115.532 59.3929 116.237 59.7093 116.876" fill="#0B0C0B"/>
<path d="M72.0099 120.437H70.1274V109.192H72.0099V120.437ZM71.276 109.192H73.6002C74.3257 109.174 75.0457 109.322 75.7069 109.624C76.277 109.886 76.7605 110.307 77.1001 110.838C77.4204 111.398 77.589 112.034 77.589 112.681C77.589 113.327 77.4204 113.963 77.1001 114.523C76.763 115.058 76.2789 115.482 75.7069 115.744C75.0457 116.046 74.3257 116.194 73.6002 116.176H71.276V114.646H73.5186C73.9036 114.654 74.2858 114.579 74.64 114.427C74.9494 114.289 75.2118 114.062 75.3943 113.775C75.5733 113.462 75.6675 113.107 75.6675 112.746C75.6675 112.384 75.5733 112.029 75.3943 111.717C75.211 111.433 74.9485 111.211 74.64 111.078C74.2872 110.921 73.9044 110.843 73.5186 110.852H71.276V109.192ZM74.4905 115.072L78.2622 120.437H75.9652L72.4177 115.072H74.4905Z" fill="#0B0C0B"/>
<path d="M80.3215 117.954C80.5819 118.262 80.8978 118.518 81.2526 118.708C81.6081 118.891 82.0024 118.983 82.4011 118.976C82.8523 118.994 83.2944 118.845 83.6447 118.557C83.7984 118.425 83.9208 118.259 84.0031 118.073C84.0854 117.887 84.1255 117.684 84.1205 117.48C84.1391 117.12 84.0308 116.765 83.8146 116.478C83.5878 116.202 83.302 115.982 82.9787 115.833C82.579 115.636 82.1683 115.462 81.7487 115.312C81.4333 115.2 81.1247 115.069 80.8244 114.921C80.4789 114.746 80.1531 114.535 79.8526 114.29C79.5426 114.033 79.2842 113.718 79.0914 113.363C78.8705 112.903 78.7689 112.393 78.7962 111.882C78.8236 111.37 78.9789 110.874 79.2477 110.44C79.5633 109.98 79.995 109.613 80.4982 109.377C81.0602 109.115 81.6737 108.986 82.2923 108.999C82.8819 108.986 83.4669 109.106 84.0049 109.349C84.4701 109.57 84.8897 109.877 85.2418 110.255C85.5569 110.595 85.8224 110.979 86.0301 111.394L84.501 112.259C84.3608 111.978 84.1848 111.718 83.9777 111.483C83.7675 111.246 83.5166 111.048 83.237 110.9C82.9318 110.753 82.5966 110.68 82.2584 110.687C81.844 110.65 81.4317 110.778 81.1098 111.044C80.9957 111.152 80.9048 111.283 80.8429 111.428C80.7809 111.574 80.7492 111.73 80.7497 111.888C80.7455 112.171 80.8366 112.447 81.0079 112.67C81.2363 112.941 81.5159 113.162 81.8302 113.322C82.2965 113.567 82.7804 113.775 83.2778 113.947C83.6201 114.07 83.952 114.221 84.27 114.399C84.6068 114.582 84.9158 114.814 85.1874 115.086C85.4678 115.361 85.6978 115.683 85.867 116.039C86.0384 116.447 86.1219 116.887 86.1117 117.329C86.119 117.818 86.0144 118.302 85.8059 118.743C85.6126 119.15 85.3317 119.509 84.9835 119.792C84.6278 120.086 84.2258 120.318 83.7943 120.479C82.748 120.839 81.6047 120.78 80.6002 120.314C80.054 120.06 79.5605 119.704 79.1458 119.264C78.7425 118.846 78.4097 118.364 78.1604 117.837L79.5604 116.856C79.7842 117.258 80.0459 117.637 80.3419 117.988" fill="#0B0C0B"/>
<path d="M83.6787 19.5343C80.1966 13.4173 75.0693 8.4214 68.8906 5.12544C62.5749 1.69934 55.2488 -0.0114315 46.9125 -0.00685731H20.4897V34.2107L34.5166 19.6235V13.0983H46.5591C50.3727 13.063 54.166 13.6635 57.786 14.8754C61.1039 15.991 64.1514 17.8006 66.7295 20.1861C69.3361 22.6586 71.371 25.6807 72.6896 29.0373C75.5712 36.962 75.5712 45.6625 72.6896 53.5872C71.3727 56.9467 69.3376 59.9713 66.7295 62.4452C64.1514 64.8307 61.1039 66.6403 57.786 67.7559C54.1656 68.9655 50.3724 69.5636 46.5591 69.5261H34.5166V43.453L20.4897 57.8618V82.5627H46.9125C55.2488 82.5627 62.5749 80.8496 68.8906 77.4235C75.0708 74.1297 80.1987 69.1334 83.6787 63.0147C87.2262 56.8395 88.9999 49.5802 88.9999 41.2368C88.9999 32.8934 87.2262 25.634 83.6787 19.4588" fill="#0B0C0B"/>
<path d="M45.6893 41.1819L40.3205 46.7327V54.5615L47.7145 46.918L60.0628 57.8961V50.5819L49.3115 41.0446C48.8078 40.5893 48.1486 40.3491 47.473 40.3747C46.7973 40.4003 46.1578 40.6897 45.6893 41.1819ZM45.6893 24.0834L14.5706 56.27L0 41.8954V49.5459L12.7696 62.1433C13.2591 62.6347 13.9211 62.9109 14.6113 62.9118C14.9637 62.9104 15.3124 62.8381 15.6368 62.6991C15.9612 62.5601 16.2548 62.3571 16.5006 62.1021L47.7145 29.8195L60.0628 40.7976V33.4903L49.3115 23.9393C48.8062 23.4864 48.1469 23.2485 47.4717 23.2754C46.7965 23.3022 46.1578 23.5918 45.6893 24.0834ZM14.5706 39.8645L0 25.4899V33.1404L12.7696 45.7447C13.0167 45.9907 13.3097 46.1848 13.6317 46.3157C13.9536 46.4466 14.298 46.5117 14.6451 46.5072C14.9921 46.5027 15.3348 46.4288 15.6533 46.2897C15.9718 46.1505 16.2598 45.949 16.5006 45.6966L34.5167 27.0749V19.2118L14.5706 39.8645Z" fill="url(#paint0_linear_1865_12442)"/>
</g>
<defs>
<linearGradient id="paint0_linear_1865_12442" x1="0" y1="41.5137" x2="60.0628" y2="41.5137" gradientUnits="userSpaceOnUse">
<stop stop-color="#FFA130"/>
<stop offset="0.11" stop-color="#FF8F28"/>
<stop offset="0.33" stop-color="#FF6113"/>
<stop offset="0.5" stop-color="#FF3800"/>
<stop offset="0.62" stop-color="#FF4A08"/>
<stop offset="0.86" stop-color="#FF7A1E"/>
<stop offset="1" stop-color="#FF972B"/>
</linearGradient>
<clipPath id="clip0_1865_12442">
<rect width="89" height="121" fill="white"/>
</clipPath>
</defs>
</svg>
